<svg width="25" height="25" viewBox="0 0 24 24" xmlns="http://www.w3.org/2000/svg"><path fill="currentColor" d="M12.015 2.483c-5.271 0-9.562 4.29-9.562 9.562 0 5.27 4.29 9.562 9.562 9.562 5.27 0 9.562-4.291 9.562-9.562 0-5.271-4.291-9.562-9.562-9.562M9.625 18.02 4.843 13.24l1.685-1.685 3.095 3.083 7.877-7.876 1.685 1.697z" opacity=".3" style="opacity:1;fill:#27c627;fill-opacity:1;stroke-width:1.19524"/><path fill="currentColor" d="M12.015.092C5.417.092.063 5.447.063 12.045c0 6.597 5.354 11.952 11.952 11.952s11.952-5.355 11.952-11.952c0-6.598-5.354-11.953-11.952-11.953m0 21.515c-5.271 0-9.562-4.291-9.562-9.562 0-5.271 4.29-9.562 9.562-9.562 5.27 0 9.562 4.29 9.562 9.562 0 5.27-4.291 9.562-9.562 9.562M17.5 6.762l-7.877 7.876-3.095-3.083-1.685 1.685 4.78 4.78 9.562-9.561z" style="fill:green;stroke-width:1.19524"/><path fill="currentColor" d="M17.405 6.666 9.53 14.543l-3.096-3.084-1.685 1.685 4.78 4.781 9.563-9.562z" style="fill:#74ff74;fill-opacity:1;stroke-width:1.19524"/></svg>