<svg width="25" height="25" viewBox="0 0 1200 1200" xmlns="http://www.w3.org/2000/svg"><path fill="rgba(0, 255, 0, 1)" style="fill:none" d="M0 0h1200v1200H0z"/><path fill="red" d="M599.426 2.298c-331.371 0-600 268.629-600 600 0 331.37 268.629 600 600 600 331.37 0 600-268.63 600-600 0-331.371-268.63-600-600-600" style="fill:#fff"/><path fill="red" d="M600 1.552c-331.371 0-600 268.63-600 600 0 331.371 268.629 600 600 600s600-268.629 600-600c0-331.37-268.629-600-600-600M197.314 441.005h805.371V762.1H197.314z"/></svg>