<svg width="24" height="24" xmlns="http://www.w3.org/2000/svg"><path fill="#27c627" d="M11.952 2.391c-5.271 0-9.562 4.29-9.562 9.562 0 5.27 4.29 9.562 9.562 9.562 5.27 0 9.562-4.291 9.562-9.562 0-5.271-4.291-9.562-9.562-9.562m-2.39 15.537-4.782-4.78 1.685-1.685 3.095 3.083 7.877-7.876 1.685 1.697z" /><path fill="green" d="M11.952 0C5.354 0 0 5.355 0 11.953c0 6.597 5.354 11.952 11.952 11.952s11.952-5.355 11.952-11.952C23.904 5.355 18.55 0 11.952 0m0 21.515c-5.271 0-9.562-4.291-9.562-9.562 0-5.271 4.29-9.562 9.562-9.562 5.27 0 9.562 4.29 9.562 9.562 0 5.27-4.291 9.562-9.562 9.562M17.437 6.67 9.56 14.546l-3.095-3.083-1.685 1.685 4.78 4.78 9.562-9.561z" /><path fill="#74ff74" d="M17.435 6.206 9.56 14.083l-3.096-3.084-1.685 1.685 4.78 4.781 9.563-9.562z" /></svg>
